# xmcd
#
# Track frame offsets: 
#        150
#        22537
#        44075
#        57892
#        82982
#        98207
#        108512
#        133557
#        152315
#        166657
#
# Disc length: 2585 seconds
#
# Revision: 1
# Processed by: cddbd v1.5.2PL0 Copyright (c) Steve Scherf et al.
# Submitted via: ExactAudioCopy v1.0b3
#
DISCID=690a170a
DTITLE=Sayuri Ishikawa - 20 seiki no meikyoku tachi vol.8
DYEAR=1998
DGENRE=Pop
TTITLE0=Meigetsu Akagiyama
TTITLE1=Jealousy
TTITLE2=Tabi no Yado
TTITLE3=Hana no Kubikazari
TTITLE4=Koi
TTITLE5=Come on - a My House - Uchi e Oide yo -
TTITLE6=Juusanya
TTITLE7=Tabi sugata Sannin Otoko
TTITLE8=Hachigatsu no Nureta Suna
TTITLE9=Miagete goran Sora no Hoshi o
EXTD=YEAR: 1998
EXTT0=
EXTT1=
EXTT2=
EXTT3=
EXTT4=
EXTT5=
EXTT6=
EXTT7=
EXTT8=
EXTT9=
PLAYORDER=
